<svg xmlns="http://www.w3.org/2000/svg" viewBox="0 0 400 400" role="img" aria-label="2500 meditation app icons, one highlighted as built for two">
  <defs>
    <radialGradient id="h3-bg" cx="50%" cy="50%" r="55%">
      <stop offset="0%" stop-color="#c9a84c" stop-opacity="0.12"/>
      <stop offset="100%" stop-color="#c9a84c" stop-opacity="0"/>
    </radialGradient>
    <radialGradient id="h3-spot" cx="50%" cy="50%" r="50%">
      <stop offset="0%" stop-color="#2d9e8a" stop-opacity="0.55"/>
      <stop offset="100%" stop-color="#2d9e8a" stop-opacity="0"/>
    </radialGradient>
  </defs>
  <rect width="400" height="400" fill="url(#h3-bg)"/>
  <!-- Grid of faded app icons -->
  <g opacity="0.35">
    <!-- 9 cols × 9 rows of tiny squircles -->
    <g fill="#8a8075">
      <!-- Row generation -->
    </g>
  </g>
  <!-- Programmatically placed grid -->
  <g fill="#8a8075" opacity="0.32">
    <rect x="40"  y="40"  width="22" height="22" rx="5"/>
    <rect x="72"  y="40"  width="22" height="22" rx="5"/>
    <rect x="104" y="40"  width="22" height="22" rx="5"/>
    <rect x="136" y="40"  width="22" height="22" rx="5"/>
    <rect x="168" y="40"  width="22" height="22" rx="5"/>
    <rect x="232" y="40"  width="22" height="22" rx="5"/>
    <rect x="264" y="40"  width="22" height="22" rx="5"/>
    <rect x="296" y="40"  width="22" height="22" rx="5"/>
    <rect x="328" y="40"  width="22" height="22" rx="5"/>
    <rect x="40"  y="72"  width="22" height="22" rx="5"/>
    <rect x="72"  y="72"  width="22" height="22" rx="5"/>
    <rect x="104" y="72"  width="22" height="22" rx="5"/>
    <rect x="136" y="72"  width="22" height="22" rx="5"/>
    <rect x="168" y="72"  width="22" height="22" rx="5"/>
    <rect x="200" y="72"  width="22" height="22" rx="5"/>
    <rect x="232" y="72"  width="22" height="22" rx="5"/>
    <rect x="264" y="72"  width="22" height="22" rx="5"/>
    <rect x="296" y="72"  width="22" height="22" rx="5"/>
    <rect x="328" y="72"  width="22" height="22" rx="5"/>
    <rect x="40"  y="104" width="22" height="22" rx="5"/>
    <rect x="72"  y="104" width="22" height="22" rx="5"/>
    <rect x="104" y="104" width="22" height="22" rx="5"/>
    <rect x="136" y="104" width="22" height="22" rx="5"/>
    <rect x="168" y="104" width="22" height="22" rx="5"/>
    <rect x="200" y="104" width="22" height="22" rx="5"/>
    <rect x="232" y="104" width="22" height="22" rx="5"/>
    <rect x="264" y="104" width="22" height="22" rx="5"/>
    <rect x="296" y="104" width="22" height="22" rx="5"/>
    <rect x="328" y="104" width="22" height="22" rx="5"/>
    <rect x="40"  y="136" width="22" height="22" rx="5"/>
    <rect x="72"  y="136" width="22" height="22" rx="5"/>
    <rect x="104" y="136" width="22" height="22" rx="5"/>
    <rect x="136" y="136" width="22" height="22" rx="5"/>
    <rect x="168" y="136" width="22" height="22" rx="5"/>
    <rect x="232" y="136" width="22" height="22" rx="5"/>
    <rect x="264" y="136" width="22" height="22" rx="5"/>
    <rect x="296" y="136" width="22" height="22" rx="5"/>
    <rect x="328" y="136" width="22" height="22" rx="5"/>
    <rect x="40"  y="232" width="22" height="22" rx="5"/>
    <rect x="72"  y="232" width="22" height="22" rx="5"/>
    <rect x="104" y="232" width="22" height="22" rx="5"/>
    <rect x="136" y="232" width="22" height="22" rx="5"/>
    <rect x="168" y="232" width="22" height="22" rx="5"/>
    <rect x="200" y="232" width="22" height="22" rx="5"/>
    <rect x="232" y="232" width="22" height="22" rx="5"/>
    <rect x="264" y="232" width="22" height="22" rx="5"/>
    <rect x="296" y="232" width="22" height="22" rx="5"/>
    <rect x="328" y="232" width="22" height="22" rx="5"/>
    <rect x="40"  y="264" width="22" height="22" rx="5"/>
    <rect x="72"  y="264" width="22" height="22" rx="5"/>
    <rect x="104" y="264" width="22" height="22" rx="5"/>
    <rect x="136" y="264" width="22" height="22" rx="5"/>
    <rect x="168" y="264" width="22" height="22" rx="5"/>
    <rect x="200" y="264" width="22" height="22" rx="5"/>
    <rect x="232" y="264" width="22" height="22" rx="5"/>
    <rect x="264" y="264" width="22" height="22" rx="5"/>
    <rect x="296" y="264" width="22" height="22" rx="5"/>
    <rect x="328" y="264" width="22" height="22" rx="5"/>
    <rect x="40"  y="296" width="22" height="22" rx="5"/>
    <rect x="72"  y="296" width="22" height="22" rx="5"/>
    <rect x="104" y="296" width="22" height="22" rx="5"/>
    <rect x="136" y="296" width="22" height="22" rx="5"/>
    <rect x="168" y="296" width="22" height="22" rx="5"/>
    <rect x="200" y="296" width="22" height="22" rx="5"/>
    <rect x="232" y="296" width="22" height="22" rx="5"/>
    <rect x="264" y="296" width="22" height="22" rx="5"/>
    <rect x="296" y="296" width="22" height="22" rx="5"/>
    <rect x="328" y="296" width="22" height="22" rx="5"/>
    <rect x="40"  y="328" width="22" height="22" rx="5"/>
    <rect x="72"  y="328" width="22" height="22" rx="5"/>
    <rect x="104" y="328" width="22" height="22" rx="5"/>
    <rect x="136" y="328" width="22" height="22" rx="5"/>
    <rect x="168" y="328" width="22" height="22" rx="5"/>
    <rect x="200" y="328" width="22" height="22" rx="5"/>
    <rect x="232" y="328" width="22" height="22" rx="5"/>
    <rect x="264" y="328" width="22" height="22" rx="5"/>
    <rect x="296" y="328" width="22" height="22" rx="5"/>
    <rect x="328" y="328" width="22" height="22" rx="5"/>
  </g>
  <!-- Center spotlight -->
  <circle cx="200" cy="200" r="90" fill="url(#h3-spot)"/>
  <!-- Highlighted "built for two" app icon -->
  <rect x="184" y="184" width="32" height="32" rx="8" fill="#2d9e8a" stroke="#f5f0e8" stroke-width="1"/>
  <!-- Two interlocked circles inside -->
  <circle cx="196" cy="200" r="5" fill="none" stroke="#f5f0e8" stroke-width="1.2"/>
  <circle cx="204" cy="200" r="5" fill="none" stroke="#f5f0e8" stroke-width="1.2"/>
  <!-- Label line -->
  <text x="200" y="240" font-family="'JetBrains Mono',monospace" font-size="9" fill="#c9a84c" text-anchor="middle" letter-spacing="2">BUILT FOR TWO</text>
  <text x="200" y="174" font-family="'JetBrains Mono',monospace" font-size="8" fill="#8a8075" text-anchor="middle" letter-spacing="2">2,500+ APPS</text>
</svg>
